<?xml version="1.0" encoding="UTF-8"?>
<svg xmlns="http://www.w3.org/2000/svg" xmlns:cc="http://creativecommons.org/ns#" xmlns:dc="http://purl.org/dc/elements/1.1/" xmlns:rdf="http://www.w3.org/1999/02/22-rdf-syntax-ns#" xmlns:svg="http://www.w3.org/2000/svg" viewBox="0 0 267.10272 158.05172" height="158.05171" width="267.10272" xml:space="preserve" version="1.1" id="svg2">
    <g transform="matrix(1.25,0,0,-1.25,5.0056328,198.04442)" id="g10">
      <g transform="matrix(1.2374858,0,0,1.2374858,102.70878,144.67834)" id="g40" style="opacity:1;stop-opacity:1">
        <path id="path42" style="fill:#797677;fill-opacity:1;fill-rule:nonzero;stroke:none" d="m 0,0 c 0.085,0.776 0.002,1.771 -0.38,2.29 -0.146,0.61 0.049,0.978 0.203,1.274 0.185,0.318 0.37,0.674 0.759,0.779 0.249,0.04 0.196,0.042 0.385,0 C 1.335,4.282 1.809,4.149 1.866,3.958 V 3.702 c 0.87,-0.1 1.087,0.452 1.925,0.384 2.168,0.87 5.11,0.964 7.635,1.476 1.842,0.153 3.427,0.013 5.26,-0.128 0.429,-0.068 0.665,-0.004 0.899,-0.257 0.064,-0.069 0.193,-0.13 0.279,-0.162 0.41,-0.155 0.484,-0.135 0.939,-0.351 0.525,-0.249 0.99,-0.763 1.22,-1.347 0.219,-0.559 0.163,-1.539 -0.58,-1.61 C 19.245,0.874 18.957,0.73 18.753,0.453 18.381,-0.42 18.366,0.162 17.007,0.237 16.834,-0.039 16.612,-0.384 16.302,-0.404 15.113,-0.4 13.717,-0.044 12.773,-0.533 10.955,-0.798 8.401,-0.59 6.806,-1.302 5.118,-1.411 3.894,-1.984 2.379,-2.265 2.417,-4.366 2.218,-6.703 3.02,-8.039 3.089,-8.599 2.944,-8.946 2.893,-9.387 2.252,-9.777 1.034,-9.703 0.519,-9.258 c 0.061,0.814 -0.711,1.464 -0.257,2.245 -0.222,1.597 -0.454,3.182 -0.385,5.069" />
      </g>
      <g transform="matrix(1.2374858,0,0,1.2374858,115.37309,154.43554)" id="g44" style="opacity:1;stop-opacity:1">
        <path id="path46" style="fill:#797677;fill-opacity:1;fill-rule:nonzero;stroke:none" d="m 0,0 c 0.223,-0.051 -0.351,-0.765 -0.582,-0.832 -0.404,-0.119 -0.396,0.062 -0.71,-0.155 -0.067,-0.016 -0.649,-0.299 -1.053,-0.42 -0.501,-0.192 -1.176,-0.322 -1.68,-0.493 -0.09,-0.049 -0.758,-0.192 -0.742,-0.18 -0.941,-0.089 -1.816,-0.355 -2.519,-0.705 -0.554,-0.11 -0.668,0.119 -0.738,0.17 -0.212,0.255 -0.504,0.272 -0.639,0.611 -0.066,0.447 -0.082,0.524 -0.023,0.739 0.035,0.133 0.473,0.353 0.725,0.416 0.19,0.099 5.048,0.887 7.868,0.847" />
      </g>
      <g transform="matrix(1.2374858,0,0,1.2374858,134.52417,118.92156)" id="g52" style="opacity:1;stop-opacity:1">
        <path id="path54" style="fill:#797677;fill-opacity:1;fill-rule:nonzero;stroke:none" d="m 0,0 c 0.754,-0.876 0.479,-0.677 0.336,-1.519 -1.193,0.77 -5.386,1.188 -7.281,2.582 -0.448,0.031 -1.189,0.443 -1.078,-0.245 -3.257,0.902 -7.854,2.399 -10.689,1.533 -7.571,1.371 -14.725,-0.683 -20.32,-1.566 -1.944,-0.692 -4.038,-2.572 -5.909,-2.456 -0.176,-1.245 -3.037,-0.998 -3.533,-2.547 -2.172,-0.013 -1.247,0.152 -2.702,2.146 0.67,1.712 -0.088,2.363 1.073,3.795 3.452,0.254 6.225,3.41 10.126,3.007 0.605,1.061 2.307,0.738 3.278,0.946 0.587,0.126 1.098,0.699 1.708,0.793 0.553,0.086 1.227,-0.224 1.771,-0.105 1.095,0.24 3.61,0.532 5.204,0.368 0.857,-0.088 1.446,0.379 2.178,0.44 0.478,0.04 0.785,-0.167 1.208,-0.178 3.31,-0.086 7.743,0.39 11.565,-1.03 C -8.596,5.504 -2.895,2.601 0,0" />
      </g>
      <g transform="matrix(1.2374858,0,0,1.2374858,40.402609,99.006452)" id="g48" style="opacity:1;stop-opacity:1">
        <path id="path50" style="fill:#797677;fill-opacity:1;fill-rule:nonzero;stroke:none" d="m 0,0 c 3.461,0.896 2.014,0.183 3.613,0.433 6.887,1.419 8.261,1.668 8.261,1.668 0.867,0.182 0.269,0.057 1.115,0.234 0.646,0.246 1.679,0.266 2.945,0.314 0.939,-0.103 1.26,-0.127 2.75,-0.163 0.919,0.081 1.221,0.222 1.641,0.684 0.946,0.166 1.696,-0.317 3.588,-0.328 0.402,-0.002 3.17,0.546 4.519,0.427 1.065,-0.094 2.727,0.968 3.812,1.028 l 1.053,-0.051 c 3.34,-0.397 6.577,-0.54 9.4,0.329 0.526,-0.22 0.924,-0.481 1.743,-0.502 1.054,-0.021 2.894,-0.024 4.236,0.506 l 3.512,-0.362 c 9.023,1.552 17.779,-1.274 27.209,-0.713 1.731,-0.883 2.912,0.094 4.754,-1.061 1.679,0.315 3.254,0.37 5.509,-0.728 4.391,-0.379 8.849,-0.918 13.727,-2.488 0.388,0.727 1.237,0.328 1.863,0.474 1.362,-2.103 8.629,-1.485 8.395,-1.906 8.361,-1.31 5.246,-2.209 8.285,-2.32 3.362,-2.531 7.035,-1.711 11.579,-4.098 0.619,2.771 -4.89,4.7 -7.404,4.858 -0.012,0.399 -0.564,0.61 -0.269,1.116 -2.919,1.197 -6.012,2.821 -8.3,2.472 -0.169,1.332 -1.28,0.519 -2.357,0.737 -3.015,0.607 -5.849,3.313 -7.173,2 -2.973,2.922 -7.903,1.033 -9.773,2.586 -0.887,0.602 -2.086,0.518 -2.418,0.262 -0.976,0.41 -2.476,0.981 -3.134,0.821 -2.617,-0.759 -7.707,1.443 -11.645,1.781 0,0 -3.573,0.536 -4.804,-0.421 -3.146,1.45 -7.891,0.806 -8.429,1.183 -0.489,0.196 -1.282,0.17 -1.915,-0.112 -6.207,2.387 -16.507,0.622 -19.562,1.357 -0.658,0 -3.936,-0.824 -6.35,-0.379 0,0 -3.549,0.417 -4.06,0.377 C 29.239,9.74 30.216,9.199 26.977,9.653 26.786,9.358 24.86,8.702 24.524,8.766 22.971,9.363 13.014,7.822 12.278,7.795 5.489,6.249 8.913,7.115 4.873,6.718 4.334,7.535 -2.985,4.959 -6.82,4.524 -7.492,4.296 -8.549,3.499 -8.887,3.562 c -3.837,0.09 -6.282,-2.476 -10.036,-2.592 -1.473,-0.884 -2.494,-0.759 -3.753,-1.117 -0.796,-0.32 -2.585,-1.418 -3.756,-1.806 -1.701,-1.121 -2.533,-0.97 -3.967,-1.574 l -0.756,-0.352 c -2.421,-2.885 -1.441,-4.206 -0.3,-5.446 0.372,-0.304 0.853,-0.682 1.167,-0.819 0.987,-0.432 1.439,-0.517 1.597,-0.482 0.076,0.017 0.272,0.073 0.428,0.129 0.49,0.087 1.259,1.242 1.428,1.284 0.249,0.061 0.625,0.226 0.625,0.226 0.299,0.072 0.464,0.274 0.464,0.274 0.386,0.359 0.181,0.799 3.125,1.367 0,0 0.625,0.146 1.306,1.06 2.227,0.041 4.33,2.642 6.76,2.185 2.437,0.853 3.323,2.273 5.281,1.87" />
      </g>
      <g aria-label="pyRLAMENT" transform="scale(1,-1)" id="text2486" style="font-size:50.1333px;line-height:1.25;stroke-width:0.8"><path d="M 0.85151542,-35.99417 V -74.496545 H 4.5112464 v 2.406399 q 0.9023994,-1.102933 2.2559985,-1.955199 1.3535991,-0.902399 3.3087981,-0.902399 2.105598,0 3.358931,1.002666 1.303466,0.952532 2.005332,2.606931 0.701866,1.654399 0.952533,3.709864 0.250666,2.055466 0.250666,4.211198 v 6.116262 q 0,3.709865 -0.601599,6.467196 -0.6016,2.707198 -2.155732,4.261331 -1.503999,1.503999 -4.2111976,1.503999 -1.7546656,0 -3.0581314,-0.9024 -1.2533325,-0.902399 -2.1055986,-1.854932 V -35.99417 Z M 9.12351,-47.976029 q 1.654399,0 2.456532,-1.052799 0.852266,-1.052799 1.102932,-3.108265 0.3008,-2.105598 0.3008,-5.063463 v -6.216529 q 0,-2.807465 -0.3008,-4.712531 -0.250666,-1.955198 -1.102932,-2.957864 -0.852266,-1.002666 -2.5567986,-1.002666 -1.4037324,0 -2.6069316,0.751999 -1.1530659,0.752 -1.9050654,1.503999 v 19.752521 q 0.8021328,0.852266 1.9551987,1.503999 1.2031992,0.601599 2.6570649,0.601599 z" style="font-weight:300;font-family:Oswald;-inkscape-font-specification:'Oswald Light'" id="path31" />
        <path d="M 20.954959,-38.300302 V -41.1579 q 2.506665,0 3.759998,-0.401066 1.303466,-0.350933 1.704532,-1.052799 0.4512,-0.651733 0.4512,-1.554133 0,-0.802133 -0.3008,-2.105598 -0.3008,-1.303466 -0.651733,-2.707199 l -5.965863,-25.51785 h 3.659731 l 5.01333,24.665584 4.862931,-24.665584 h 3.709864 l -7.018662,31.032513 q -0.401067,1.854933 -1.453866,2.957865 -1.002666,1.153066 -2.707198,1.654399 -1.654399,0.551466 -4.110931,0.551466 z" style="font-weight:300;font-family:Oswald;-inkscape-font-specification:'Oswald Light'" id="path33" />
        <path d="m 41.609809,-45.519497 v -40.607974 h 9.174394 q 3.810131,0 5.965863,1.253333 2.205865,1.203199 3.158398,3.559464 0.952533,2.306132 0.952533,5.514663 0,2.255999 -0.501333,4.261331 -0.501333,2.005332 -1.704533,3.409064 -1.203199,1.403733 -3.409064,1.854933 l 6.216529,20.755186 H 57.752732 L 51.786869,-65.472551 H 45.41994 v 19.953054 z m 3.810131,-22.760518 h 5.16373 q 2.556798,0 3.960531,-0.852267 1.403732,-0.852266 2.005332,-2.506665 0.601599,-1.654399 0.601599,-4.161064 0,-3.759997 -1.303465,-5.614929 -1.303466,-1.854932 -5.16373,-1.854932 H 45.41994 Z" style="font-weight:300;font-family:Oswald;-inkscape-font-specification:'Oswald Light'" id="path35" />
        <path d="m 67.278014,-45.519497 v -40.607974 h 3.810131 v 37.750376 h 11.530659 v 2.857598 z" style="font-weight:300;font-family:Oswald;-inkscape-font-specification:'Oswald Light'" id="path37" />
        <path d="m 84.223074,-45.519497 8.572794,-40.607974 h 4.010664 l 8.622928,40.607974 h -3.76 l -2.005329,-10.878926 h -9.675728 l -2.055465,10.878926 z m 6.316796,-13.636258 h 8.622928 l -4.311464,-21.908252 z" style="font-weight:300;font-family:Oswald;-inkscape-font-specification:'Oswald Light'" id="path39" />
        <path d="m 109.99155,-45.519497 1.00267,-40.607974 h 3.81013 l 8.02132,35.243711 8.17173,-35.243711 h 3.81013 l 1.00267,40.607974 h -3.1584 l -0.80213,-32.335979 -7.77066,32.335979 h -2.45653 l -7.6704,-32.285846 -0.80213,32.285846 z" style="font-weight:300;font-family:Oswald;-inkscape-font-specification:'Oswald Light'" id="path41" />
        <path d="m 142.52805,-45.519497 v -40.607974 h 14.68906 v 2.957865 h -10.82879 v 15.240524 h 8.82346 v 2.807464 h -8.82346 v 16.744523 h 10.92906 v 2.857598 z" style="font-weight:300;font-family:Oswald;-inkscape-font-specification:'Oswald Light'" id="path43" />
        <path d="m 162.53117,-45.519497 v -40.607974 h 2.75733 l 12.9344,31.533847 v -31.533847 h 3.30879 v 40.607974 h -2.70719 l -12.98453,-31.884779 v 31.884779 z" style="font-weight:300;font-family:Oswald;-inkscape-font-specification:'Oswald Light'" id="path45" />
        <path d="m 193.61375,-45.519497 v -37.650109 h -7.6704 v -2.957865 h 18.95039 v 2.957865 h -7.46986 v 37.650109 z" style="font-weight:300;font-family:Oswald;-inkscape-font-specification:'Oswald Light'" id="path47" />
      </g>
    </g>
</svg>