<?xml version="1.0" encoding="UTF-8" standalone="no"?>
<svg
   viewBox="0 0 278.84665 278.84666"
   height="278.84665"
   width="278.84665"
   xml:space="preserve"
   version="1.1"
   id="svg2"
   sodipodi:docname="pyRLAMENT_icon.svg"
   inkscape:version="1.1.2 (0a00cf5339, 2022-02-04)"
   inkscape:export-filename="/home/bohdan/Skrypty/python/pyrlament/assets/pyRLAMENT_icon_200p.png"
   inkscape:export-xdpi="68.860001"
   inkscape:export-ydpi="68.860001"
   xmlns:inkscape="http://www.inkscape.org/namespaces/inkscape"
   xmlns:sodipodi="http://sodipodi.sourceforge.net/DTD/sodipodi-0.dtd"
   xmlns="http://www.w3.org/2000/svg"
   xmlns:svg="http://www.w3.org/2000/svg"><defs
   id="defs24">
        
      
        
      
        
      
        
      </defs><sodipodi:namedview
   id="namedview22"
   pagecolor="#ffffff"
   bordercolor="#000000"
   borderopacity="0.25"
   inkscape:pageshadow="2"
   inkscape:pageopacity="0.0"
   inkscape:pagecheckerboard="0"
   showgrid="false"
   inkscape:zoom="2.3829783"
   inkscape:cx="128.83038"
   inkscape:cy="136.38395"
   inkscape:window-width="1920"
   inkscape:window-height="1012"
   inkscape:window-x="0"
   inkscape:window-y="0"
   inkscape:window-maximized="1"
   inkscape:current-layer="svg2"
   fit-margin-top="0"
   fit-margin-left="0"
   fit-margin-right="0"
   fit-margin-bottom="0" />
    <path
   id="path28125"
   style="color:#000000;fill:#c53f29;stroke-width:1.15334;-inkscape-stroke:none;fill-opacity:1"
   d="M 139.42383 0 A 139.42332 139.42332 0 0 0 0 139.42383 A 139.42332 139.42332 0 0 0 139.42383 278.8457 A 139.42332 139.42332 0 0 0 278.8457 139.42383 A 139.42332 139.42332 0 0 0 139.42383 0 z M 162.04102 56.798828 C 162.38597 56.877718 161.49795 57.982298 161.14062 58.085938 C 160.51569 58.270012 160.52673 57.988546 160.04102 58.324219 C 159.93738 58.348969 159.03704 58.787439 158.41211 58.974609 C 157.63713 59.271606 156.59407 59.473768 155.81445 59.738281 C 155.67523 59.814081 154.64127 60.034187 154.66602 60.015625 C 153.21043 60.153295 151.85697 60.564069 150.76953 61.105469 C 149.91257 61.275624 149.73719 60.922639 149.62891 60.84375 C 149.30097 60.449301 148.84944 60.422822 148.64062 59.898438 C 148.53852 59.206992 148.51227 59.088434 148.60352 58.755859 C 148.65762 58.550127 149.33675 58.20878 149.72656 58.111328 C 150.02046 57.958189 157.53434 56.738906 161.89648 56.800781 L 162.04102 56.798828 z M 165.95898 60.291016 C 166.63353 60.281752 167.29527 60.294403 167.95703 60.320312 C 169.28056 60.372132 170.60379 60.48079 172.02148 60.589844 C 172.68508 60.69503 173.05015 60.594986 173.41211 60.986328 C 173.51111 61.093061 173.71072 61.188782 173.84375 61.238281 C 174.47796 61.478044 174.5911 61.447129 175.29492 61.78125 C 176.10702 62.166417 176.82781 62.959916 177.18359 63.863281 C 177.52235 64.727974 177.43448 66.243689 176.28516 66.353516 C 175.97889 67.642048 175.53431 67.866442 175.21875 68.294922 C 174.64332 69.645328 174.61976 68.74492 172.51758 68.628906 C 172.24997 69.055838 171.90725 69.588204 171.42773 69.619141 C 169.58851 69.612941 167.42898 69.063902 165.96875 69.820312 C 163.15656 70.230229 159.20552 69.908403 156.73828 71.009766 C 154.12719 71.178374 152.23412 72.06338 149.89062 72.498047 C 149.94942 75.747994 149.64028 79.363084 150.88086 81.429688 C 150.98759 82.295928 150.76444 82.833461 150.68555 83.515625 C 149.69401 84.118899 147.8103 84.004757 147.01367 83.316406 C 147.10807 82.057264 145.91295 81.051845 146.61523 79.84375 C 146.27182 77.373419 145.91279 74.920873 146.01953 72.001953 L 146.21094 68.994141 C 146.34242 67.79378 146.21386 66.255944 145.62305 65.453125 C 145.39721 64.509542 145.69733 63.940292 145.93555 63.482422 C 146.22171 62.990521 146.50762 62.439764 147.10938 62.277344 C 147.49454 62.215474 147.41272 62.212374 147.70508 62.277344 C 148.27432 62.371704 149.00752 62.577597 149.0957 62.873047 L 149.0957 63.267578 C 150.44146 63.422263 150.77795 62.568642 152.07422 62.673828 C 155.4278 61.328063 159.97896 61.182616 163.88477 60.390625 C 164.59709 60.331457 165.28444 60.300279 165.95898 60.291016 z M 146.27734 90.091797 C 146.87263 90.111878 147.30833 90.358158 147.88086 90.373047 C 153.00095 90.506076 159.85744 89.768306 165.76953 91.964844 C 172.68244 92.676398 181.50037 97.16799 185.97852 101.19141 C 187.14485 102.54646 186.71925 102.23856 186.49805 103.54102 C 184.65265 102.34994 178.16762 101.70319 175.23633 99.546875 C 174.54333 99.498925 173.39666 98.861543 173.56836 99.925781 C 168.53025 98.530516 161.4205 96.215098 157.03516 97.554688 C 145.3239 95.433947 134.25623 98.610687 125.60156 99.976562 C 122.59447 101.04699 119.35706 103.95482 116.46289 103.77539 C 116.19064 105.70123 111.76334 105.31876 110.99609 107.71484 C 107.63632 107.73494 109.06708 107.48091 106.81641 104.39648 C 107.8528 101.74826 106.68066 100.74049 108.47656 98.525391 C 113.81631 98.132489 118.10635 93.251617 124.14062 93.875 C 125.0765 92.233785 127.70894 92.731902 129.21094 92.410156 C 130.11894 92.215252 130.90994 91.328998 131.85352 91.183594 C 132.70893 91.050564 133.75031 91.531732 134.5918 91.347656 C 136.28561 90.97641 140.17689 90.52366 142.64258 90.777344 C 143.96824 90.913468 144.87942 90.192014 146.01172 90.097656 C 146.10414 90.089923 146.1923 90.088928 146.27734 90.091797 z M 139.98633 110.58984 C 144.71198 111.72678 160.64475 108.9971 170.24609 112.68945 C 171.22525 112.25323 172.45257 112.21247 173.20898 112.51562 C 174.04119 113.09879 181.38164 112.10276 186.24805 114.3457 C 188.15223 112.86536 193.67773 113.69531 193.67773 113.69531 C 199.76926 114.21815 207.64328 117.62328 211.69141 116.44922 C 212.70924 116.20172 215.02932 117.08453 216.53906 117.71875 C 217.05261 117.32275 218.90723 117.19379 220.2793 118.125 C 223.17192 120.52727 230.79768 117.60508 235.39648 122.125 C 237.44452 120.09397 241.82841 124.27981 246.49219 125.21875 C 248.15815 125.55596 249.87725 124.29892 250.13867 126.35938 C 253.67788 125.8195 258.46324 128.33006 262.97852 130.18164 C 262.52219 130.96435 263.37593 131.291 263.39453 131.9082 C 267.28333 132.1526 275.80321 135.13749 274.8457 139.42383 C 267.81678 135.73148 262.13609 136.99907 256.93555 133.08398 C 252.23465 132.91228 257.05241 131.52247 244.11914 129.49609 C 244.4811 128.84486 233.24159 129.79991 231.13477 126.54688 C 230.16644 126.77272 228.85213 126.15669 228.25195 127.28125 C 220.70638 124.85268 213.80983 124.0179 207.01758 123.43164 C 203.52942 121.73319 201.09327 121.81938 198.49609 122.30664 C 195.64678 120.52002 193.82019 122.02994 191.14258 120.66406 C 176.55572 121.53185 163.01198 117.16178 149.05469 119.5625 L 143.62305 119.00195 C 141.54717 119.82176 138.70069 119.81766 137.07031 119.78516 C 135.80343 119.75268 135.1867 119.34812 134.37305 119.00781 C 130.00628 120.35203 124.99853 120.13169 119.83203 119.51758 L 118.20508 119.4375 C 116.52674 119.53032 113.95404 121.17275 112.30664 121.02734 C 110.21993 120.84327 105.93825 121.69245 105.31641 121.68945 C 102.38976 121.67244 101.2309 120.92486 99.767578 121.18164 C 99.117898 121.89629 98.650078 122.11494 97.228516 122.24023 C 94.923699 122.18455 94.427108 122.14565 92.974609 121.98633 C 91.016287 122.06057 89.419192 122.09213 88.419922 122.47266 C 87.111281 122.74642 88.036439 122.55246 86.695312 122.83398 C 86.695313 122.83398 84.569222 123.21907 73.916016 125.41406 C 71.442591 125.80078 73.681798 124.698 68.328125 126.08398 L 53.982422 129.53516 C 50.953676 128.91177 49.582191 131.10826 45.8125 132.42773 C 42.053637 131.72082 38.80032 135.74519 35.355469 135.80859 C 34.302059 137.22242 33.335938 137.44727 33.335938 137.44727 C 28.78199 138.32589 29.099039 139.00718 28.501953 139.5625 C 28.501953 139.5625 28.245713 139.87495 27.783203 139.98633 C 27.783203 139.98633 27.201573 140.24154 26.816406 140.33594 C 26.554987 140.4009 25.367335 142.18769 24.609375 142.32227 C 24.368065 142.40889 24.064827 142.49518 23.947266 142.52148 C 23.702863 142.57562 23.003311 142.44363 21.476562 141.77539 C 20.99085 141.56347 20.247306 140.98002 19.671875 140.50977 C 17.906911 138.59167 16.389825 136.54862 20.134766 132.08594 L 21.304688 131.54102 C 23.522881 130.60671 24.810202 130.8395 27.441406 129.10547 C 29.252776 128.50529 32.018702 126.80749 33.25 126.3125 C 35.197493 125.75872 36.778121 125.9514 39.056641 124.58398 C 44.863543 124.40454 48.644787 120.43501 54.580078 120.57422 C 55.102916 120.67168 56.737856 119.43862 57.777344 119.08594 C 63.709541 118.41306 75.031478 114.42958 75.865234 115.69336 C 82.114537 115.07926 76.818707 116.41878 87.320312 114.02734 C 88.458799 113.98557 103.85945 111.60192 106.26172 112.52539 C 106.78146 112.62439 109.76119 111.60866 110.05664 111.15234 C 115.06691 111.85461 113.5564 111.01913 123.88477 110.59375 C 124.67521 110.53187 130.16406 111.17578 130.16406 111.17578 C 133.89817 111.86413 138.9685 110.58984 139.98633 110.58984 z M 69.835938 142.18359 L 81.304688 142.18359 C 84.479793 142.18359 86.965275 142.70555 88.761719 143.75 C 90.59994 144.75267 91.915207 146.23567 92.708984 148.19922 C 93.502762 150.12099 93.900391 152.41997 93.900391 155.09375 C 93.900391 156.97375 93.691209 158.74882 93.273438 160.41992 C 92.85566 162.09104 92.145245 163.51187 91.142578 164.68164 C 90.139912 165.85142 88.71908 166.624 86.880859 167 L 94.652344 192.94336 L 90.015625 192.94336 L 82.558594 168.00195 L 74.599609 168.00195 L 74.599609 192.94336 L 69.835938 192.94336 L 69.835938 142.18359 z M 101.92188 142.18359 L 106.68359 142.18359 L 106.68359 189.37109 L 121.09766 189.37109 L 121.09766 192.94336 L 101.92188 192.94336 L 101.92188 142.18359 z M 133.81836 142.18359 L 138.83203 142.18359 L 149.61133 192.94336 L 144.91016 192.94336 L 142.4043 179.3457 L 130.30859 179.3457 L 127.74023 192.94336 L 123.10352 192.94336 L 133.81836 142.18359 z M 156.56641 142.18359 L 161.33008 142.18359 L 171.35547 186.23828 L 181.57031 142.18359 L 186.33398 142.18359 L 187.58594 192.94336 L 183.63867 192.94336 L 182.63672 152.52344 L 172.92188 192.94336 L 169.85156 192.94336 L 160.26367 152.58594 L 159.26172 192.94336 L 155.3125 192.94336 L 156.56641 142.18359 z M 195.98438 142.18359 L 214.3457 142.18359 L 214.3457 145.88086 L 200.80859 145.88086 L 200.80859 164.93164 L 211.83789 164.93164 L 211.83789 168.44141 L 200.80859 168.44141 L 200.80859 189.37109 L 214.4707 189.37109 L 214.4707 192.94336 L 195.98438 192.94336 L 195.98438 142.18359 z M 220.98828 142.18359 L 224.43555 142.18359 L 240.60352 181.60156 L 240.60352 142.18359 L 244.73828 142.18359 L 244.73828 192.94336 L 241.35547 192.94336 L 225.12305 153.08789 L 225.12305 192.94336 L 220.98828 192.94336 L 220.98828 142.18359 z M 250.25391 142.18359 L 273.94141 142.18359 L 273.94141 145.88086 L 264.60352 145.88086 L 264.60352 192.94336 L 259.8418 192.94336 L 259.8418 145.88086 L 250.25391 145.88086 L 250.25391 142.18359 z M 74.599609 145.75586 L 74.599609 164.49219 L 81.052734 164.49219 C 83.1834 164.49219 84.834129 164.13795 86.003906 163.42773 C 87.173683 162.71751 88.010385 161.67358 88.511719 160.29492 C 89.013051 158.91626 89.263672 157.18264 89.263672 155.09375 C 89.263672 151.96042 88.719033 149.62 87.632812 148.07422 C 86.546594 146.52845 84.396574 145.75586 81.179688 145.75586 L 74.599609 145.75586 z M 136.38867 148.51367 L 130.99805 175.89844 L 141.77734 175.89844 L 136.38867 148.51367 z M 30.419922 156.1582 C 32.174587 156.1582 33.572743 156.57656 34.617188 157.41211 C 35.703409 158.20589 36.540112 159.29126 37.125 160.66992 C 37.709889 162.04859 38.105564 163.59375 38.314453 165.30664 C 38.523341 167.01953 38.628906 168.77583 38.628906 170.57227 L 38.628906 178.2168 C 38.628906 181.30835 38.378286 184.003 37.876953 186.30078 C 37.37562 188.55677 36.476751 190.33184 35.181641 191.62695 C 33.928309 192.88029 32.173968 193.50781 29.917969 193.50781 C 28.455747 193.50781 27.181924 193.13091 26.095703 192.37891 C 25.051259 191.62691 24.173112 190.85433 23.462891 190.06055 L 23.462891 204.84961 L 18.888672 204.84961 L 18.888672 156.72266 L 23.462891 156.72266 L 23.462891 159.73047 C 24.21489 158.81136 25.155204 157.99733 26.283203 157.28711 C 27.411202 156.53511 28.790589 156.1582 30.419922 156.1582 z M 42.763672 156.72266 L 47.339844 156.72266 L 53.605469 187.55469 L 59.683594 156.72266 L 64.322266 156.72266 L 55.548828 195.51367 C 55.214605 197.05945 54.607801 198.29183 53.730469 199.21094 C 52.894914 200.17182 51.7681 200.85956 50.347656 201.27734 C 48.96899 201.7369 47.256094 201.9668 45.208984 201.9668 L 44.017578 201.9668 L 44.017578 198.39453 C 46.106465 198.39453 47.672353 198.22875 48.716797 197.89453 C 49.803019 197.60209 50.513435 197.16302 50.847656 196.57812 C 51.223656 196.03502 51.412109 195.38677 51.412109 194.63477 C 51.412109 193.96632 51.287776 193.09013 51.037109 192.00391 C 50.786443 190.91769 50.5151 189.78892 50.222656 188.61914 L 42.763672 156.72266 z M 29.103516 159.73047 C 27.933739 159.73047 26.846416 160.04326 25.84375 160.66992 C 24.882861 161.29659 24.089557 161.92412 23.462891 162.55078 L 23.462891 187.24023 C 24.131335 187.95045 24.945362 188.57799 25.90625 189.12109 C 26.908916 189.62243 28.016961 189.87305 29.228516 189.87305 C 30.607182 189.87305 31.630384 189.43397 32.298828 188.55664 C 33.00905 187.67931 33.468846 186.38476 33.677734 184.67188 C 33.928401 182.91721 34.054688 180.80668 34.054688 178.3418 L 34.054688 170.57227 C 34.054688 168.23271 33.928401 166.26919 33.677734 164.68164 C 33.468846 163.05231 33.00905 161.8199 32.298828 160.98438 C 31.588607 160.14882 30.52396 159.73047 29.103516 159.73047 z " />
</svg>
