<?xml version="1.0" encoding="UTF-8" standalone="no"?>
<!-- Created with Inkscape (http://www.inkscape.org/) -->
<svg xmlns:dc="http://purl.org/dc/elements/1.1/" xmlns:cc="http://creativecommons.org/ns#" xmlns:rdf="http://www.w3.org/1999/02/22-rdf-syntax-ns#" xmlns:svg="http://www.w3.org/2000/svg" xmlns="http://www.w3.org/2000/svg" xmlns:sodipodi="http://sodipodi.sourceforge.net/DTD/sodipodi-0.dtd" xmlns:inkscape="http://www.inkscape.org/namespaces/inkscape" id="svg2" version="1.1" inkscape:version="0.91 r13725" xml:space="preserve" width="257.10001" height="193.03999" viewBox="0 0 257.1 193.04" sodipodi:docname="SejmRP.svg"><metadata id="metadata8"><rdf:RDF><cc:Work rdf:about=""><dc:format>image/svg+xml</dc:format><dc:type rdf:resource="http://purl.org/dc/dcmitype/StillImage"/><dc:title/></cc:Work></rdf:RDF></metadata><defs id="defs6"><clipPath clipPathUnits="userSpaceOnUse" id="clipPath16"><path d="m 0,0 841.89,0 0,595.276 L 0,595.276 0,0 Z" id="path18" inkscape:connector-curvature="0"/></clipPath><clipPath clipPathUnits="userSpaceOnUse" id="clipPath32"><path d="m 0,0 841.89,0 0,595.276 L 0,595.276 0,0 Z" id="path34" inkscape:connector-curvature="0"/></clipPath><clipPath clipPathUnits="userSpaceOnUse" id="clipPath72"><path d="m 0,0 841.89,0 0,595.276 L 0,595.276 0,0 Z" id="path74" inkscape:connector-curvature="0"/></clipPath><clipPath clipPathUnits="userSpaceOnUse" id="clipPath92"><path d="m 0,0 841.89,0 0,595.276 L 0,595.276 0,0 Z" id="path94" inkscape:connector-curvature="0"/></clipPath><clipPath clipPathUnits="userSpaceOnUse" id="clipPath134"><path d="m 0,0 841.89,0 0,595.276 L 0,595.276 0,0 Z" id="path136" inkscape:connector-curvature="0"/></clipPath><clipPath clipPathUnits="userSpaceOnUse" id="clipPath154"><path d="m 0,0 841.89,0 0,595.276 L 0,595.276 0,0 Z" id="path156" inkscape:connector-curvature="0"/></clipPath><clipPath clipPathUnits="userSpaceOnUse" id="clipPath176"><path d="m 0,0 841.89,0 0,595.276 L 0,595.276 0,0 Z" id="path178" inkscape:connector-curvature="0"/></clipPath></defs><sodipodi:namedview pagecolor="#ffffff" bordercolor="#666666" borderopacity="1" objecttolerance="10" gridtolerance="10" guidetolerance="10" inkscape:pageopacity="0" inkscape:pageshadow="2" inkscape:window-width="1680" inkscape:window-height="987" id="namedview4" showgrid="false" inkscape:zoom="0.70710678" inkscape:cx="229.50938" inkscape:cy="331.86866" inkscape:window-x="-8" inkscape:window-y="-8" inkscape:window-maximized="1" inkscape:current-layer="g10"/><g id="g10" inkscape:groupmode="layer" inkscape:label="SejmRP" transform="matrix(1.25,0,0,-1.25,0,193.04007)"><g id="g4494" transform="matrix(1.2374858,0,0,1.2374858,-418.07697,-304.08054)"><g id="g28"><g clip-path="url(#clipPath32)" id="g30"><g transform="translate(489.2808,278.4747)" id="g36"><path inkscape:connector-curvature="0" id="path38" style="fill:#797677;fill-opacity:1;fill-rule:nonzero;stroke:none" d="m 0,0 -2.032,24.276 c -0.141,1.438 -0.188,2.982 -0.188,4.313 l -0.095,0 C -2.551,27.311 -2.882,25.66 -3.26,24.276 L -9.495,0 l -3.307,0 -6.142,24.276 c -0.378,1.491 -0.661,2.822 -0.897,4.313 l -0.095,0 c -0.047,-1.544 -0.141,-3.301 -0.236,-4.313 L -22.25,0 l -5.102,0 3.684,36.627 6.047,0 5.858,-23.424 c 0.378,-1.544 0.614,-2.768 0.851,-4.632 l 0.094,0 c 0.283,1.917 0.52,3.141 0.897,4.632 l 5.858,23.424 6.047,0 L 5.669,0 0,0 Z"/></g></g></g><g id="g4417"><path d="m 427.187,257.662 1.669,0 0,-9.042 -1.669,0 0,9.042 z" style="fill:#797677;fill-opacity:1;fill-rule:nonzero;stroke:none" id="path120" inkscape:connector-curvature="0"/><g id="g4342"><g id="g12"><g clip-path="url(#clipPath16)" id="g14"><g transform="translate(355.2648,277.8888)" id="g20"><path inkscape:connector-curvature="0" id="path22" style="fill:#797677;fill-opacity:1;fill-rule:nonzero;stroke:none" d="m 0,0 c -3.354,0 -6.378,0.799 -8.503,2.13 l 1.559,4.578 c 1.842,-1.171 4.109,-1.703 6.236,-1.703 3.448,0 5.385,2.182 5.385,5.164 0,7.825 -12.85,5.643 -12.85,17.462 0,6.015 4.157,10.168 10.346,10.168 2.929,0 5.574,-0.799 7.512,-2.077 L 8.22,31.57 c -1.417,0.905 -3.496,1.597 -5.338,1.597 -3.165,0 -5.102,-1.757 -5.102,-4.951 0,-7.72 12.991,-5.324 12.991,-17.462 C 10.771,4.632 6.566,0 0,0"/></g></g></g><g transform="translate(390.5516,278.4747)" id="g24"><path inkscape:connector-curvature="0" id="path26" style="fill:#797677;fill-opacity:1;fill-rule:nonzero;stroke:none" d="m 0,0 0,36.627 15.826,0 0,-4.525 -9.826,0 0,-11.073 8.739,0 0,-4.472 -8.739,0 0,-12.032 9.826,0 L 15.826,0 0,0 Z"/></g><g transform="translate(420.8418,362.6376)" id="g40"><path inkscape:connector-curvature="0" id="path42" style="fill:#797677;fill-opacity:1;fill-rule:nonzero;stroke:none" d="m 0,0 c 0.085,0.776 0.002,1.771 -0.38,2.29 -0.146,0.61 0.049,0.978 0.203,1.274 0.185,0.318 0.37,0.674 0.759,0.779 0.249,0.04 0.196,0.042 0.385,0 C 1.335,4.282 1.809,4.149 1.866,3.958 l 0,-0.256 c 0.87,-0.1 1.087,0.452 1.925,0.384 2.168,0.87 5.11,0.964 7.635,1.476 1.842,0.153 3.427,0.013 5.26,-0.128 0.429,-0.068 0.665,-0.004 0.899,-0.257 0.064,-0.069 0.193,-0.13 0.279,-0.162 0.41,-0.155 0.484,-0.135 0.939,-0.351 0.525,-0.249 0.99,-0.763 1.22,-1.347 0.219,-0.559 0.163,-1.539 -0.58,-1.61 C 19.245,0.874 18.957,0.73 18.753,0.453 18.381,-0.42 18.366,0.162 17.007,0.237 16.834,-0.039 16.612,-0.384 16.302,-0.404 15.113,-0.4 13.717,-0.044 12.773,-0.533 10.955,-0.798 8.401,-0.59 6.806,-1.302 5.118,-1.411 3.894,-1.984 2.379,-2.265 2.417,-4.366 2.218,-6.703 3.02,-8.039 3.089,-8.599 2.944,-8.946 2.893,-9.387 2.252,-9.777 1.034,-9.703 0.519,-9.258 c 0.061,0.814 -0.711,1.464 -0.257,2.245 -0.222,1.597 -0.454,3.182 -0.385,5.069"/></g><g transform="translate(431.0757,370.5223)" id="g44"><path inkscape:connector-curvature="0" id="path46" style="fill:#797677;fill-opacity:1;fill-rule:nonzero;stroke:none" d="m 0,0 c 0.223,-0.051 -0.351,-0.765 -0.582,-0.832 -0.404,-0.119 -0.396,0.062 -0.71,-0.155 -0.067,-0.016 -0.649,-0.299 -1.053,-0.42 -0.501,-0.192 -1.176,-0.322 -1.68,-0.493 -0.09,-0.049 -0.758,-0.192 -0.742,-0.18 -0.941,-0.089 -1.816,-0.355 -2.519,-0.705 -0.554,-0.11 -0.668,0.119 -0.738,0.17 -0.212,0.255 -0.504,0.272 -0.639,0.611 -0.066,0.447 -0.082,0.524 -0.023,0.739 0.035,0.133 0.473,0.353 0.725,0.416 0.19,0.099 5.048,0.887 7.868,0.847"/></g><g transform="translate(370.4928,325.7306)" id="g48"><path inkscape:connector-curvature="0" id="path50" style="fill:#797677;fill-opacity:1;fill-rule:nonzero;stroke:none" d="m 0,0 c 3.461,0.896 2.014,0.183 3.613,0.433 6.887,1.419 8.261,1.668 8.261,1.668 0.867,0.182 0.269,0.057 1.115,0.234 0.646,0.246 1.679,0.266 2.945,0.314 0.939,-0.103 1.26,-0.127 2.75,-0.163 0.919,0.081 1.221,0.222 1.641,0.684 0.946,0.166 1.696,-0.317 3.588,-0.328 0.402,-0.002 3.17,0.546 4.519,0.427 1.065,-0.094 2.727,0.968 3.812,1.028 l 1.053,-0.051 c 3.34,-0.397 6.577,-0.54 9.4,0.329 0.526,-0.22 0.924,-0.481 1.743,-0.502 1.054,-0.021 2.894,-0.024 4.236,0.506 l 3.512,-0.362 c 9.023,1.552 17.779,-1.274 27.209,-0.713 1.731,-0.883 2.912,0.094 4.754,-1.061 1.679,0.315 3.254,0.37 5.509,-0.728 4.391,-0.379 8.849,-0.918 13.727,-2.488 0.388,0.727 1.237,0.328 1.863,0.474 1.362,-2.103 8.629,-1.485 8.395,-1.906 8.361,-1.31 5.246,-2.209 8.285,-2.32 3.362,-2.531 7.035,-1.711 11.579,-4.098 0.619,2.771 -4.89,4.7 -7.404,4.858 -0.012,0.399 -0.564,0.61 -0.269,1.116 -2.919,1.197 -6.012,2.821 -8.3,2.472 -0.169,1.332 -1.28,0.519 -2.357,0.737 -3.015,0.607 -5.849,3.313 -7.173,2 -2.973,2.922 -7.903,1.033 -9.773,2.586 -0.887,0.602 -2.086,0.518 -2.418,0.262 -0.976,0.41 -2.476,0.981 -3.134,0.821 -2.617,-0.759 -7.707,1.443 -11.645,1.781 0,0 -3.573,0.536 -4.804,-0.421 -3.146,1.45 -7.891,0.806 -8.429,1.183 -0.489,0.196 -1.282,0.17 -1.915,-0.112 -6.207,2.387 -16.507,0.622 -19.562,1.357 -0.658,0 -3.936,-0.824 -6.35,-0.379 0,0 -3.549,0.417 -4.06,0.377 C 29.239,9.74 30.216,9.199 26.977,9.653 26.786,9.358 24.86,8.702 24.524,8.766 22.971,9.363 13.014,7.822 12.278,7.795 5.489,6.249 8.913,7.115 4.873,6.718 4.334,7.535 -2.985,4.959 -6.82,4.524 -7.492,4.296 -8.549,3.499 -8.887,3.562 c -3.837,0.09 -6.282,-2.476 -10.036,-2.592 -1.473,-0.884 -2.494,-0.759 -3.753,-1.117 -0.796,-0.32 -2.585,-1.418 -3.756,-1.806 -1.701,-1.121 -2.533,-0.97 -3.967,-1.574 l -0.756,-0.352 c -2.421,-2.885 -1.441,-4.206 -0.3,-5.446 0.372,-0.304 0.853,-0.682 1.167,-0.819 0.987,-0.432 1.439,-0.517 1.597,-0.482 0.076,0.017 0.272,0.073 0.428,0.129 0.49,0.087 1.259,1.242 1.428,1.284 0.249,0.061 0.625,0.226 0.625,0.226 0.299,0.072 0.464,0.274 0.464,0.274 0.386,0.359 0.181,0.799 3.125,1.367 0,0 0.625,0.146 1.306,1.06 2.227,0.041 4.33,2.642 6.76,2.185 2.437,0.853 3.323,2.273 5.281,1.87"/></g><g transform="translate(446.5515,341.8238)" id="g52"><path inkscape:connector-curvature="0" id="path54" style="fill:#797677;fill-opacity:1;fill-rule:nonzero;stroke:none" d="m 0,0 c 0.754,-0.876 0.479,-0.677 0.336,-1.519 -1.193,0.77 -5.386,1.188 -7.281,2.582 -0.448,0.031 -1.189,0.443 -1.078,-0.245 -3.257,0.902 -7.854,2.399 -10.689,1.533 -7.571,1.371 -14.725,-0.683 -20.32,-1.566 -1.944,-0.692 -4.038,-2.572 -5.909,-2.456 -0.176,-1.245 -3.037,-0.998 -3.533,-2.547 -2.172,-0.013 -1.247,0.152 -2.702,2.146 0.67,1.712 -0.088,2.363 1.073,3.795 3.452,0.254 6.225,3.41 10.126,3.007 0.605,1.061 2.307,0.738 3.278,0.946 0.587,0.126 1.098,0.699 1.708,0.793 0.553,0.086 1.227,-0.224 1.771,-0.105 1.095,0.24 3.61,0.532 5.204,0.368 0.857,-0.088 1.446,0.379 2.178,0.44 0.478,0.04 0.785,-0.167 1.208,-0.178 3.31,-0.086 7.743,0.39 11.565,-1.03 C -8.596,5.504 -2.895,2.601 0,0"/></g><g transform="translate(346.0312,248.6196)" id="g56"><path inkscape:connector-curvature="0" id="path58" style="fill:#797677;fill-opacity:1;fill-rule:nonzero;stroke:none" d="m 0,0 -1.472,2.839 c -0.29,0.553 -0.683,0.985 -1.236,1.17 l 0,-4.009 -1.629,0 0,8.674 c 0.67,0.302 1.564,0.513 2.484,0.513 2.142,0 3.377,-0.907 3.377,-2.667 0,-1.248 -0.906,-2.143 -2.273,-2.432 l 0,-0.027 C -0.394,3.759 -0.092,3.339 0.144,2.943 L 1.853,0 0,0 Z m -1.813,8.214 c -0.329,0 -0.658,-0.065 -0.895,-0.144 l 0,-3.364 c 0.197,-0.04 0.447,-0.066 0.697,-0.066 1.196,0 1.919,0.789 1.919,1.84 0,1.17 -0.578,1.734 -1.721,1.734"/></g><g transform="translate(348.8567,248.6196)" id="g60"><path inkscape:connector-curvature="0" id="path62" style="fill:#797677;fill-opacity:1;fill-rule:nonzero;stroke:none" d="m 0,0 3.167,7.926 -2.918,0 0,1.116 5.008,0 -3.102,-7.925 3.181,0 L 5.336,0 0,0 Z"/></g><g transform="translate(355.9012,248.6196)" id="g64"><path inkscape:connector-curvature="0" id="path66" style="fill:#797677;fill-opacity:1;fill-rule:nonzero;stroke:none" d="m 0,0 0,9.042 4.403,0 0,-1.116 -2.734,0 0,-2.734 2.432,0 0,-1.104 -2.432,0 0,-2.971 2.734,0 L 4.403,0 0,0 Z"/></g><g id="g68"><g clip-path="url(#clipPath72)" id="g70"><g transform="translate(365.246,248.4756)" id="g76"><path inkscape:connector-curvature="0" id="path78" style="fill:#797677;fill-opacity:1;fill-rule:nonzero;stroke:none" d="m 0,0 c -2.419,0 -3.483,2.273 -3.483,4.666 0,2.392 1.064,4.665 3.483,4.665 0.762,0 1.393,-0.184 1.879,-0.513 L 1.485,7.794 c -0.302,0.184 -0.71,0.341 -1.196,0.341 -1.485,0 -2.05,-1.735 -2.05,-3.456 0,-1.696 0.591,-3.405 2.036,-3.405 0.474,0 0.894,0.159 1.197,0.342 L 1.879,0.525 C 1.393,0.197 0.762,0 0,0"/></g></g></g><g transform="translate(368.308,248.6196)" id="g80"><path inkscape:connector-curvature="0" id="path82" style="fill:#797677;fill-opacity:1;fill-rule:nonzero;stroke:none" d="m 0,0 3.167,7.926 -2.917,0 0,1.116 5.007,0 -3.102,-7.925 3.181,0 L 5.336,0 0,0 Z"/></g><g transform="translate(378.6515,252.5232)" id="g84"><path inkscape:connector-curvature="0" id="path86" style="fill:#797677;fill-opacity:1;fill-rule:nonzero;stroke:none" d="m 0,0 0,-3.904 -1.669,0 0,3.904 -2.445,5.139 1.774,0 1.551,-3.759 0.026,0 1.617,3.759 1.59,0 L 0,0 Z"/></g><g id="g88"><g clip-path="url(#clipPath92)" id="g90"><g transform="translate(384.8284,252.1549)" id="g96"><path inkscape:connector-curvature="0" id="path98" style="fill:#797677;fill-opacity:1;fill-rule:nonzero;stroke:none" d="m 0,0 c -0.263,0 -0.552,0.027 -0.736,0.053 l 0,-3.588 -1.629,0 0,8.674 c 0.656,0.302 1.537,0.513 2.496,0.513 2.327,0 3.312,-1.222 3.312,-2.825 C 3.443,1.249 2.405,0 0,0 m 0.144,4.679 c -0.315,0 -0.643,-0.065 -0.88,-0.144 l 0,-3.509 C -0.552,0.999 -0.263,0.972 0,0.972 c 1.367,0 1.84,0.804 1.84,1.882 0,1.13 -0.487,1.825 -1.696,1.825"/></g><g transform="translate(393.1473,248.4756)" id="g100"><path inkscape:connector-curvature="0" id="path102" style="fill:#797677;fill-opacity:1;fill-rule:nonzero;stroke:none" d="M 0,0 C -2.339,0 -3.404,2.011 -3.404,4.666 -3.404,7.32 -2.339,9.331 0,9.331 2.34,9.331 3.405,7.32 3.405,4.666 3.405,2.011 2.34,0 0,0 m 0,8.188 c -1.314,0 -1.722,-1.551 -1.722,-3.483 0,-1.932 0.408,-3.496 1.722,-3.496 1.315,0 1.722,1.564 1.722,3.496 0,1.932 -0.407,3.483 -1.722,3.483"/></g><g transform="translate(400.4022,248.4756)" id="g104"><path inkscape:connector-curvature="0" id="path106" style="fill:#797677;fill-opacity:1;fill-rule:nonzero;stroke:none" d="m 0,0 c -0.933,0 -1.774,0.197 -2.365,0.525 l 0.434,1.131 c 0.512,-0.289 1.143,-0.421 1.734,-0.421 0.96,0 1.498,0.539 1.498,1.275 0,1.933 -3.574,1.393 -3.574,4.312 0,1.484 1.156,2.509 2.878,2.509 0.815,0 1.551,-0.197 2.09,-0.513 L 2.287,7.794 C 1.893,8.017 1.314,8.188 0.802,8.188 c -0.88,0 -1.419,-0.434 -1.419,-1.222 0,-1.907 3.614,-1.315 3.614,-4.312 C 2.997,1.143 1.827,0 0,0"/></g><g transform="translate(407.6572,252.1549)" id="g108"><path inkscape:connector-curvature="0" id="path110" style="fill:#797677;fill-opacity:1;fill-rule:nonzero;stroke:none" d="m 0,0 c -0.263,0 -0.552,0.027 -0.736,0.053 l 0,-3.588 -1.63,0 0,8.674 c 0.657,0.302 1.538,0.513 2.498,0.513 2.326,0 3.311,-1.222 3.311,-2.825 C 3.443,1.249 2.405,0 0,0 m 0.144,4.679 c -0.315,0 -0.644,-0.065 -0.88,-0.144 l 0,-3.509 C -0.552,0.999 -0.263,0.972 0,0.972 c 1.367,0 1.84,0.804 1.84,1.882 0,1.13 -0.487,1.825 -1.696,1.825"/></g><g transform="translate(415.9767,248.4756)" id="g112"><path inkscape:connector-curvature="0" id="path114" style="fill:#797677;fill-opacity:1;fill-rule:nonzero;stroke:none" d="M 0,0 C -2.34,0 -3.404,2.011 -3.404,4.666 -3.404,7.32 -2.34,9.331 0,9.331 2.339,9.331 3.404,7.32 3.404,4.666 3.404,2.011 2.339,0 0,0 m 0,8.188 c -1.314,0 -1.721,-1.551 -1.721,-3.483 0,-1.932 0.407,-3.496 1.721,-3.496 1.314,0 1.722,1.564 1.722,3.496 0,1.932 -0.408,3.483 -1.722,3.483"/></g></g></g><g transform="translate(421.3123,248.6196)" id="g116"><path inkscape:connector-curvature="0" id="path118" style="fill:#797677;fill-opacity:1;fill-rule:nonzero;stroke:none" d="m 0,0 0,9.042 1.669,0 0,-7.925 2.511,0 L 4.18,0 0,0 Z"/></g><g transform="translate(433.9834,256.5452)" id="g122"><path inkscape:connector-curvature="0" id="path124" style="fill:#797677;fill-opacity:1;fill-rule:nonzero;stroke:none" d="m 0,0 0,-7.926 -1.671,0 0,7.926 -1.761,0 0,1.117 5.191,0 L 1.759,0 0,0 Z"/></g><g transform="translate(437.4124,248.6196)" id="g126"><path inkscape:connector-curvature="0" id="path128" style="fill:#797677;fill-opacity:1;fill-rule:nonzero;stroke:none" d="m 0,0 0,9.042 4.402,0 0,-1.116 -2.733,0 0,-2.734 2.432,0 0,-1.104 -2.432,0 0,-2.971 2.733,0 L 4.402,0 0,0 Z"/></g><g id="g130"><g clip-path="url(#clipPath134)" id="g132"><g transform="translate(454.0105,252.1549)" id="g138"><path inkscape:connector-curvature="0" id="path140" style="fill:#797677;fill-opacity:1;fill-rule:nonzero;stroke:none" d="m 0,0 c -0.262,0 -0.55,0.027 -0.735,0.053 l 0,-3.588 -1.63,0 0,8.674 c 0.657,0.302 1.537,0.513 2.497,0.513 2.327,0 3.312,-1.222 3.312,-2.825 C 3.444,1.249 2.406,0 0,0 m 0.145,4.679 c -0.315,0 -0.644,-0.065 -0.88,-0.144 l 0,-3.509 C -0.55,0.999 -0.262,0.972 0,0.972 c 1.368,0 1.841,0.804 1.841,1.882 0,1.13 -0.486,1.825 -1.696,1.825"/></g><g transform="translate(462.3299,248.4756)" id="g142"><path inkscape:connector-curvature="0" id="path144" style="fill:#797677;fill-opacity:1;fill-rule:nonzero;stroke:none" d="M 0,0 C -2.34,0 -3.404,2.011 -3.404,4.666 -3.404,7.32 -2.34,9.331 0,9.331 2.339,9.331 3.405,7.32 3.405,4.666 3.405,2.011 2.339,0 0,0 m 0,8.188 c -1.314,0 -1.721,-1.551 -1.721,-3.483 0,-1.932 0.407,-3.496 1.721,-3.496 1.315,0 1.722,1.564 1.722,3.496 0,1.932 -0.407,3.483 -1.722,3.483"/></g></g></g><g transform="translate(467.6664,248.6196)" id="g146"><path inkscape:connector-curvature="0" id="path148" style="fill:#797677;fill-opacity:1;fill-rule:nonzero;stroke:none" d="m 0,0 0,9.042 1.669,0 0,-7.925 2.511,0 L 4.18,0 0,0 Z"/></g><g id="g150"><g clip-path="url(#clipPath154)" id="g152"><g transform="translate(475.4595,248.4756)" id="g158"><path inkscape:connector-curvature="0" id="path160" style="fill:#797677;fill-opacity:1;fill-rule:nonzero;stroke:none" d="m 0,0 c -0.932,0 -1.775,0.197 -2.364,0.525 l 0.433,1.131 c 0.512,-0.289 1.143,-0.421 1.734,-0.421 0.96,0 1.498,0.539 1.498,1.275 0,1.933 -3.574,1.393 -3.574,4.312 0,1.484 1.157,2.509 2.879,2.509 0.813,0 1.549,-0.197 2.088,-0.513 L 2.288,7.794 C 1.893,8.017 1.315,8.188 0.802,8.188 -0.079,8.188 -0.617,7.754 -0.617,6.966 -0.617,5.059 2.997,5.651 2.997,2.654 2.997,1.143 1.827,0 0,0"/></g></g></g><g transform="translate(484.8038,248.6196)" id="g162"><path inkscape:connector-curvature="0" id="path164" style="fill:#797677;fill-opacity:1;fill-rule:nonzero;stroke:none" d="m 0,0 -2.759,4.575 -0.027,0 0,-4.575 -1.642,0 0,9.042 1.642,0 0,-4.14 0.027,0 2.759,4.14 1.775,0 L -1.262,4.85 1.933,0 0,0 Z"/></g><path inkscape:connector-curvature="0" id="path166" style="fill:#797677;fill-opacity:1;fill-rule:nonzero;stroke:none" d="m 488.195,257.662 1.67,0 0,-9.042 -1.67,0 0,9.042 z"/><g transform="translate(492.0859,248.6196)" id="g168"><path inkscape:connector-curvature="0" id="path170" style="fill:#797677;fill-opacity:1;fill-rule:nonzero;stroke:none" d="m 0,0 0,9.042 4.403,0 0,-1.116 -2.734,0 0,-2.734 2.432,0 0,-1.104 -2.432,0 0,-2.971 2.734,0 L 4.403,0 0,0 Z"/></g><g id="g172"><g clip-path="url(#clipPath176)" id="g174"><g transform="translate(498.5169,257.6576)" id="g180"><path inkscape:connector-curvature="0" id="path182" style="fill:#797677;fill-opacity:1;fill-rule:nonzero;stroke:none" d="m 0,0 0,-8.892 c 0,-1.224 -0.271,-2.269 -0.801,-3.041 l 1.575,0 c 0.599,0.772 0.904,1.833 0.904,3.083 L 1.678,0 0,0 Z"/></g><g transform="translate(443.8442,257.6576)" id="g184"><path inkscape:connector-curvature="0" id="path186" style="fill:#797677;fill-opacity:1;fill-rule:nonzero;stroke:none" d="m 0,0 0,-8.892 c 0,-1.224 -0.272,-2.269 -0.801,-3.041 l 1.575,0 c 0.598,0.772 0.903,1.833 0.903,3.083 L 1.677,0 0,0 Z"/></g><g transform="translate(427.7206,279.0545)" id="g188"><path inkscape:connector-curvature="0" id="path190" style="fill:#ee2722;fill-opacity:1;fill-rule:nonzero;stroke:none" d="m 0,0 c 0,-4.967 -0.968,-9.203 -2.86,-12.336 l 0.9,0 c 1.835,3.136 2.775,7.338 2.775,12.255 l 0,36.124 L 0,36.043 0,0 Z"/></g><g transform="translate(434.1138,315.0976)" id="g192"><path inkscape:connector-curvature="0" id="path194" style="fill:#ee2722;fill-opacity:1;fill-rule:nonzero;stroke:none" d="m 0,0 0,-36.043 c 0,-4.967 -0.968,-9.203 -2.86,-12.336 l 5.623,0 c 2.134,3.132 3.223,7.439 3.223,12.509 L 5.986,0 0,0 Z"/></g></g></g></g></g></g></g></svg>